<svg width="50" height="50" viewBox="0 0 50 50" fill="none" xmlns="http://www.w3.org/2000/svg">
<g clip-path="url(#clip0)">
<path d="M36.4401 1.96434L7.58857 0.0345523C6.64805 -0.0277524 5.83232 0.685431 5.76934 1.62567L5.54365 5.00037H1.70898C0.766699 5.00037 0 5.76707 0 6.70936V48.2588C0 49.2011 0.766699 49.9678 1.70898 49.9678H23.7931C23.9845 49.9678 24.1741 49.8895 24.3099 49.7544L27.6437 46.4353C27.6775 46.4426 27.7121 46.4483 27.7477 46.4507L33.4393 46.8313C34.3477 46.8913 35.1976 46.1524 35.2585 45.2402L38.0312 3.78367C38.0937 2.8532 37.3705 2.02654 36.4401 1.96434ZM24.5255 47.4626V42.3747C24.5255 42.2401 24.6351 42.1306 24.7696 42.1306H29.838L24.5255 47.4626ZM33.7969 45.1426C33.773 45.29 33.6864 45.3658 33.5371 45.3698L29.0176 45.0675L32.1184 41.9804C32.2564 41.843 32.3341 41.6562 32.3341 41.4614V6.70945C32.3341 5.76717 31.5674 5.00047 30.6251 5.00047H23.0086C22.0616 5.00047 22.0616 6.46531 23.0086 6.46531H30.6251C30.7598 6.46531 30.8692 6.57488 30.8692 6.70945V40.6657H24.7696C23.8273 40.6657 23.0606 41.4324 23.0606 42.3747V48.5029H1.70898C1.57441 48.5029 1.46484 48.3933 1.46484 48.2588V6.70945C1.46484 6.57488 1.57441 6.46531 1.70898 6.46531H19.1082C20.0552 6.46531 20.0552 5.00047 19.1082 5.00047H7.01172L7.23086 1.72352C7.25469 1.57596 7.34131 1.50028 7.49072 1.49627L36.3423 3.42596C36.4898 3.44979 36.5656 3.53641 36.5696 3.68582L33.7969 45.1426Z" fill="#405169"/>
<path d="M26.155 23.1494H6.17908C5.77459 23.1494 5.44666 23.4773 5.44666 23.8818C5.44666 24.2863 5.77459 24.6143 6.17908 24.6143H26.155C26.5596 24.6143 26.8874 24.2863 26.8874 23.8818C26.8874 23.4773 26.5596 23.1494 26.155 23.1494Z" fill="#405169"/>
<path d="M26.155 28.2554H6.17908C5.77459 28.2554 5.44666 28.5833 5.44666 28.9878C5.44666 29.3923 5.77459 29.7202 6.17908 29.7202H26.155C26.5596 29.7202 26.8874 29.3923 26.8874 28.9878C26.8874 28.5833 26.5596 28.2554 26.155 28.2554Z" fill="#405169"/>
<path d="M5.44666 18.7754C5.44666 19.1799 5.77459 19.5078 6.17908 19.5078H26.155C26.5596 19.5078 26.8874 19.1799 26.8874 18.7754C26.8874 18.3709 26.5596 18.043 26.155 18.043H6.17908C5.77459 18.043 5.44666 18.3709 5.44666 18.7754Z" fill="#405169"/>
<path d="M8.96545 13.6694C8.96545 14.0739 9.29338 14.4019 9.69788 14.4019H22.6361C23.0406 14.4019 23.3685 14.0739 23.3685 13.6694C23.3685 13.2649 23.0406 12.937 22.6361 12.937H9.69788C9.29338 12.937 8.96545 13.2649 8.96545 13.6694Z" fill="#405169"/>
<path d="M19.0191 42.8502C17.7018 42.8537 16.3845 42.8566 15.0672 42.8586C14.6244 42.8593 14.1818 42.8599 13.7391 42.8602C12.9368 42.8608 12.3963 42.6997 12.2166 41.8173C12.0647 41.0712 11.0092 41.1715 10.8041 41.8173C10.2973 43.4127 9.45901 42.7876 8.98948 41.7145C8.52102 40.6439 8.4009 39.4456 8.19632 38.3063C8.04592 37.4691 6.77971 37.7037 6.75764 38.501C6.72854 39.5509 6.63049 40.5841 6.36399 41.6024C6.08909 42.6529 5.67708 43.6626 5.26809 44.6664C4.91155 45.5415 6.32932 45.918 6.68059 45.0559C7.04299 44.1664 7.40588 43.2721 7.676 42.3494C8.17796 43.5565 9.21643 44.9217 10.6962 44.1171C10.9715 43.9674 11.2286 43.7546 11.4543 43.5065C12.2239 44.3957 13.3693 44.3256 14.441 44.3243C15.9671 44.3224 17.4932 44.3191 19.0193 44.3151C19.9615 44.3126 19.9633 42.8478 19.0191 42.8502Z" fill="#405169"/>
<path d="M49.4074 24.0662C49.0269 23.6875 48.5036 23.4933 47.9724 23.4789L47.4189 23.4816V22.4349C47.4189 21.7973 47.0401 21.1236 46.4977 20.7882V19.3138C46.4977 16.2797 41.7738 16.2929 41.7738 19.328V20.8026C41.2212 21.1442 40.8505 21.7539 40.8505 22.4483V23.5208C38.4124 23.6868 38.4055 27.4021 40.8532 27.5474C40.8688 30.8262 40.8681 34.0513 40.8505 37.385C40.8457 38.3043 42.3103 38.3582 42.3153 37.3927C42.3329 34.0562 42.3337 30.8282 42.3182 27.5467L45.9521 27.5286C45.9521 27.5286 45.9474 38.3536 45.9474 43.2302C45.9474 45.6069 42.3127 45.6228 42.3127 43.2055L42.314 41.8698C42.3711 40.9245 40.909 40.8363 40.8517 41.7815V43.0349C40.8517 44.1091 41.184 45.0188 41.8271 45.6588C41.8844 47.1913 42.5301 48.6742 43.621 49.7561C43.934 50.0666 44.3673 49.9717 44.6702 49.7383C45.7801 48.6265 46.4055 47.1607 46.4445 45.5963C46.928 45.1147 47.4121 44.6299 47.4121 42.9697L47.4127 36.2948C48.6793 36.6551 50 35.6749 50 34.347V25.4923C50 24.9529 49.7896 24.4465 49.4074 24.0662ZM42.3153 23.5069V22.4482C42.3153 22.2315 42.4641 22.0498 42.6643 21.9958L45.5964 21.9813C45.6784 22.0016 45.7541 22.0403 45.8154 22.1015C45.9048 22.1904 45.954 22.3088 45.954 22.4349V23.489L42.3153 23.5069ZM44.1387 18.4288C44.5883 18.4288 45.0327 18.8696 45.0327 19.3138V20.5019L43.2386 20.5107V19.328C43.2387 18.8346 43.6422 18.4313 44.1387 18.4288ZM44.1376 48.1066C43.7971 47.624 43.5508 47.0782 43.4133 46.5045C43.64 46.5536 43.8697 46.5792 44.0995 46.5792C44.3561 46.5792 44.6125 46.5474 44.865 46.4857C44.7309 47.0682 44.485 47.6173 44.1376 48.1066ZM48.5352 34.347C48.5352 35.0404 47.4168 35.095 47.4168 34.3598C47.4168 34.3598 47.4181 27.4287 47.4189 26.7934C47.4193 26.3836 47.0787 26.0601 46.6808 26.0601L40.9787 26.0884C40.2715 26.0884 40.288 24.9818 40.9859 24.9784L47.9796 24.9437C48.3178 24.9726 48.5029 25.1555 48.5351 25.4923V34.347H48.5352Z" fill="#405169"/>
</g>
<defs>
<clipPath id="clip0">
<rect width="50" height="50" fill="white"/>
</clipPath>
</defs>
</svg>
