<svg width="50" height="50" viewBox="0 0 50 50" fill="none" xmlns="http://www.w3.org/2000/svg">
<g clip-path="url(#clip0)">
<path d="M47.9416 20.8894L47.2984 20.4084C46.4974 19.8087 46.2132 18.7474 46.6068 17.8277L46.9235 17.0896C47.5666 15.5877 47.467 13.915 46.6503 12.5005C45.8332 11.0856 44.4348 10.1628 42.8124 9.96944L42.0151 9.87407C41.0214 9.75543 40.2444 8.97838 40.1257 7.98503L40.0307 7.18738C39.8369 5.56537 38.9142 4.16652 37.4997 3.34979C36.0848 2.53268 34.4121 2.43312 32.9107 3.07666L32.1721 3.3929C31.2524 3.78696 30.1912 3.50238 29.5915 2.70129L29.1105 2.05852C28.1316 0.750458 26.6336 0.000488281 24.9998 0.000488281C23.366 0.000488281 21.868 0.750458 20.8891 2.05852L20.4077 2.70129C19.808 3.50276 18.7472 3.78696 17.8271 3.3929L17.0889 3.07666C15.5871 2.4335 13.9144 2.53268 12.4999 3.34979C11.085 4.16652 10.1623 5.56537 9.96887 7.18738L9.8735 7.98465C9.75487 8.97838 8.97782 9.75543 7.9841 9.87407L7.18683 9.96944C5.56484 10.1628 4.166 11.0856 3.34928 12.5005C2.53218 13.915 2.43299 15.5877 3.07615 17.0896L3.39238 17.8277C3.78644 18.7474 3.50186 19.8087 2.70078 20.4084L2.05801 20.8894C0.750345 21.8682 0 23.3667 0 25.0001C0 26.6339 0.750345 28.1324 2.05801 29.1112L2.70117 29.5922C3.50225 30.1919 3.78644 31.2532 3.39276 32.1729L3.07615 32.911C2.43299 34.4129 2.53256 36.0856 3.34928 37.5001C4.16638 38.915 5.56484 39.8377 7.18721 40.0312L7.98448 40.1265C8.9782 40.2452 9.75525 41.0222 9.87388 42.0156L9.96887 42.8132C10.1627 44.4352 11.0854 45.8341 12.4999 46.6508C13.9148 47.4675 15.5875 47.5671 17.0889 46.9239L17.8275 46.6077C18.7472 46.2136 19.8084 46.4982 20.4081 47.2993L20.8891 47.9421C21.868 49.2501 23.3664 50.0005 25.0002 50.0005C26.6336 50.0005 28.132 49.2501 29.1109 47.9421L29.5919 47.2993C30.1916 46.4982 31.2524 46.2136 32.1729 46.6081L32.911 46.9239C34.4125 47.5671 36.0852 47.4679 37.5001 46.6512C38.9146 45.8341 39.8373 44.4352 40.0311 42.8132L40.1261 42.0159C40.2447 41.0222 41.0218 40.2452 42.0155 40.1265L42.8128 40.0315C44.4348 39.8377 45.834 38.915 46.6507 37.5005C47.4674 36.0856 47.567 34.4129 46.9235 32.911L46.6076 32.1733C46.2135 31.2532 46.4977 30.1919 47.2992 29.5922L47.942 29.1112C49.25 28.1324 50 26.6339 50 25.0005C49.9996 23.3667 49.2493 21.8682 47.9416 20.8894ZM46.7713 27.5476L46.1285 28.0286C44.603 29.17 44.0613 31.1906 44.812 32.9423L45.1279 33.6801C45.5265 34.6105 45.4647 35.6469 44.9589 36.5235C44.4527 37.4005 43.586 37.972 42.5808 38.0921L41.7836 38.1871C39.8915 38.413 38.4126 39.8923 38.1867 41.7844L38.0914 42.5817C37.9712 43.5868 37.3998 44.4535 36.5231 44.9597C35.6465 45.4656 34.6101 45.5274 33.6797 45.1287L32.9416 44.8125C31.1899 44.0621 29.1696 44.6038 28.0279 46.1293L27.5469 46.7721C26.9403 47.5823 26.0118 48.0474 24.9998 48.0474C23.9874 48.0474 23.0589 47.5823 22.4524 46.7721L21.9713 46.1293C21.1737 45.0631 19.9469 44.4776 18.6827 44.4776C18.1376 44.4776 17.5856 44.5867 17.058 44.8125L16.3199 45.1287C15.3891 45.5274 14.3531 45.4656 13.4761 44.9597C12.5995 44.4535 12.028 43.5868 11.9079 42.5817L11.8129 41.7844C11.5867 39.8923 10.1077 38.4133 8.21565 38.1875L7.41838 38.0921C6.41322 37.972 5.54653 37.4005 5.04032 36.5239C4.53449 35.6473 4.4727 34.6109 4.87133 33.6804L5.18757 32.9423C5.93791 31.191 5.39623 29.1703 3.87112 28.0286L3.22797 27.5476C2.41774 26.941 1.95311 26.0125 1.95311 25.0001C1.95311 23.9881 2.41774 23.0596 3.22835 22.453L3.87112 21.972C5.39661 20.8303 5.93829 18.8096 5.18757 17.0583L4.87171 16.3201C4.47308 15.3897 4.53488 14.3533 5.0407 13.4767C5.54691 12.6001 6.4136 12.0286 7.41876 11.9084L8.21603 11.8131C10.1081 11.5872 11.5871 10.1083 11.8129 8.2162L11.9082 7.41893C12.0284 6.41376 12.5998 5.54706 13.4765 5.04085C14.3531 4.53464 15.3895 4.47322 16.3199 4.87186L17.058 5.18771C18.8094 5.93806 20.83 5.39676 21.9717 3.87126L22.4527 3.22848C23.0593 2.41824 23.9878 1.95323 24.9998 1.95323C26.0118 1.95323 26.9403 2.41824 27.5469 3.22848L28.0283 3.87164C29.1696 5.39714 31.1906 5.93845 32.9416 5.18809L33.6797 4.87186C34.6101 4.47322 35.6465 4.53502 36.5231 5.04085C37.3998 5.54706 37.9716 6.41376 38.0914 7.41893L38.1867 8.2162C38.4126 10.1083 39.8919 11.5872 41.7836 11.8131L42.5808 11.9084C43.586 12.0286 44.4527 12.6001 44.9589 13.4767C45.4651 14.3533 45.5265 15.3897 45.1283 16.3201L44.812 17.0583C44.0617 18.81 44.603 20.8303 46.1285 21.972L46.7713 22.453C47.5819 23.0596 48.0465 23.9881 48.0465 25.0005C48.0465 26.0125 47.5819 26.941 46.7713 27.5476Z" fill="#405169"/>
<path d="M24.9997 5.67578C22.0537 5.67578 19.2247 6.32199 16.5918 7.59648C16.1062 7.83147 15.9033 8.4155 16.1379 8.90073C16.3729 9.38634 16.9573 9.58928 17.4425 9.3543C19.808 8.2095 22.3505 7.62891 24.9997 7.62891C34.578 7.62891 42.3706 15.4216 42.3706 25.0003C42.3706 34.5786 34.578 42.3713 24.9997 42.3713C15.4211 42.3713 7.62851 34.5786 7.62851 25.0003C7.62851 21.0769 8.90452 17.3751 11.3188 14.2947C11.6515 13.8701 11.5771 13.2564 11.1525 12.9233C10.7279 12.5907 10.1141 12.6655 9.78151 13.0896C7.0956 16.5175 5.67578 20.6359 5.67578 25.0003C5.67578 35.6555 14.3446 44.3244 24.9997 44.3244C35.6549 44.3244 44.3237 35.6555 44.3237 25.0003C44.3237 14.3447 35.6549 5.67578 24.9997 5.67578Z" fill="#405169"/>
<path d="M10.7214 20.0281L9.97756 20.9765C9.64454 21.401 9.71893 22.0148 10.1431 22.3475C10.5677 22.6805 11.1815 22.6065 11.5141 22.1819L11.9227 21.6616V28.1203H11.2688C10.7294 28.1203 10.2923 28.5574 10.2923 29.0968C10.2923 29.6362 10.7294 30.0734 11.2688 30.0734H14.496C15.035 30.0734 15.4726 29.6362 15.4726 29.0968C15.4726 28.5574 15.035 28.1203 14.496 28.1203H13.8758V20.6309C13.8758 20.0915 13.4382 19.6543 12.8992 19.6543H11.4897C11.1899 19.6543 10.9064 19.792 10.7214 20.0281Z" fill="#405169"/>
<path d="M18.569 30.0732H19.0763C20.6892 30.0732 22.001 28.7614 22.001 27.1485V22.4149C22.001 20.802 20.6888 19.4897 19.0763 19.4897H18.569C16.9562 19.4897 15.6443 20.802 15.6443 22.4149V27.1485C15.6443 28.7614 16.9562 30.0732 18.569 30.0732ZM17.5974 22.4149C17.5974 21.8789 18.0334 21.4429 18.569 21.4429H19.0763C19.6119 21.4429 20.0479 21.8789 20.0479 22.4149V27.1485C20.0479 27.6841 19.6119 28.1201 19.0763 28.1201H18.569C18.0334 28.1201 17.5974 27.6841 17.5974 27.1485V22.4149Z" fill="#405169"/>
<path d="M26.4389 30.0732C28.0517 30.0732 29.3636 28.7614 29.3636 27.1485V22.4149C29.3636 20.802 28.0514 19.4897 26.4389 19.4897H25.9315C24.3187 19.4897 23.0068 20.802 23.0068 22.4149V27.1485C23.0068 28.7614 24.3187 30.0732 25.9315 30.0732H26.4389ZM24.9599 27.1485V22.4149C24.9599 21.8789 25.396 21.4429 25.9315 21.4429H26.4389C26.9745 21.4429 27.4105 21.8789 27.4105 22.4149V27.1485C27.4105 27.6841 26.9745 28.1201 26.4389 28.1201H25.9315C25.396 28.1201 24.9599 27.6845 24.9599 27.1485Z" fill="#405169"/>
<path d="M39.3356 19.3712C38.8996 19.0542 38.2888 19.1507 37.9715 19.5868L31.7665 28.1199C31.4491 28.5563 31.5457 29.167 31.9821 29.484C32.1552 29.6099 32.3563 29.6709 32.5554 29.6709C32.8571 29.6709 33.1551 29.5313 33.3462 29.2685L39.5511 20.7354C39.8685 20.2993 39.7716 19.6886 39.3356 19.3712Z" fill="#405169"/>
<path d="M16.2039 15.6523C16.4317 15.6523 16.6606 15.573 16.8456 15.4116C19.1031 13.4402 21.9988 12.3545 24.9998 12.3545C27.8074 12.3545 30.4552 13.2693 32.657 14.9996C33.0812 15.333 33.695 15.2594 34.0284 14.8352C34.3614 14.4114 34.2878 13.7972 33.864 13.4642C31.3142 11.4603 28.2491 10.4014 24.9998 10.4014C21.5266 10.4014 18.1742 11.6583 15.5612 13.9403C15.1549 14.295 15.113 14.9119 15.4677 15.3181C15.6607 15.5394 15.9316 15.6523 16.2039 15.6523Z" fill="#405169"/>
<path d="M16.0242 36.0525C18.5731 38.056 21.6386 39.1149 24.8879 39.1149C27.1424 39.1149 29.3007 38.6068 31.3034 37.6051C31.7856 37.364 31.9809 36.7773 31.7398 36.2947C31.4984 35.8126 30.912 35.6172 30.4295 35.8583C28.7007 36.7235 26.8361 37.1618 24.8879 37.1618C22.0807 37.1618 19.4326 36.2474 17.2307 34.5167C16.8069 34.1837 16.1928 34.2573 15.8598 34.6811C15.5264 35.1053 15.6 35.7191 16.0242 36.0525Z" fill="#405169"/>
<path d="M34.5896 34.382C34.3737 34.0585 33.9693 33.8907 33.5875 33.967C33.1823 34.0482 32.8634 34.387 32.8096 34.797C32.757 35.1953 32.9638 35.5962 33.3178 35.7854C33.6733 35.9758 34.1204 35.9235 34.4236 35.6576C34.7883 35.3368 34.8532 34.7852 34.5896 34.382Z" fill="#405169"/>
<path d="M32.9316 19.1846C31.6644 19.1846 30.6333 20.2153 30.6333 21.4825C30.6333 22.7498 31.6644 23.7809 32.9316 23.7809C34.1985 23.7809 35.2296 22.7498 35.2296 21.4825C35.2296 20.2153 34.1985 19.1846 32.9316 19.1846ZM32.9316 21.8278C32.7413 21.8278 32.5864 21.6729 32.5864 21.4825C32.5864 21.2922 32.7413 21.1373 32.9316 21.1373C33.122 21.1373 33.2765 21.2922 33.2765 21.4825C33.2765 21.6729 33.122 21.8278 32.9316 21.8278Z" fill="#405169"/>
<path d="M36.0535 27.4341C36.0535 28.7013 37.0846 29.7325 38.3514 29.7325C39.6187 29.7325 40.6498 28.7013 40.6498 27.4341C40.6498 26.1669 39.6187 25.1357 38.3514 25.1357C37.0846 25.1357 36.0535 26.1669 36.0535 27.4341ZM38.6966 27.4341C38.6966 27.6245 38.5422 27.7793 38.3518 27.7793C38.1615 27.7793 38.0066 27.6245 38.0066 27.4341C38.0066 27.2437 38.1615 27.0889 38.3518 27.0889C38.5422 27.0889 38.6966 27.2437 38.6966 27.4341Z" fill="#405169"/>
<path d="M12.6438 11.0795C12.8009 11.4568 13.1847 11.7001 13.5929 11.6811C13.9957 11.662 14.3497 11.3866 14.4741 11.0043C14.5996 10.6183 14.463 10.1773 14.1395 9.93126C13.8095 9.68025 13.3487 9.66575 13.0031 9.89425C12.6178 10.1487 12.4698 10.6549 12.6438 11.0795Z" fill="#405169"/>
</g>
<defs>
<clipPath id="clip0">
<rect width="50" height="50" fill="white"/>
</clipPath>
</defs>
</svg>
