<svg width="50" height="50" viewBox="0 0 50 50" fill="none" xmlns="http://www.w3.org/2000/svg">
<path d="M5.8092 5.83022V49.1417C5.8092 49.6018 6.18232 49.9747 6.64263 49.9747H38.3093C38.7693 49.9747 39.1424 49.6018 39.1424 49.1417V14.1596C39.1424 14.1411 39.1335 14.1253 39.1318 14.1071C39.1277 14.034 39.1132 13.962 39.0892 13.893C39.0799 13.8663 39.0734 13.8405 39.0618 13.8145C39.0212 13.7239 38.965 13.6412 38.8949 13.5705L30.5617 5.24149C30.491 5.17116 30.4079 5.11489 30.3166 5.07475C30.2916 5.06412 30.2662 5.0552 30.2401 5.04731C30.1704 5.02329 30.098 5.00888 30.0242 5.00408C30.0101 5.00648 29.9936 4.99756 29.9761 4.99756H6.64263C6.18232 4.99756 5.8092 5.37015 5.8092 5.83022ZM36.2975 13.3266H30.8092V7.84103L36.2975 13.3266ZM7.47571 6.66323H29.1427V14.1596C29.1427 14.6193 29.5158 14.9923 29.9758 14.9923H37.4759V48.3091H7.47571V6.66323Z" fill="#405169"/>
<path d="M40.8093 43.3115V44.9772H43.3092C43.7695 44.9772 44.1426 44.6046 44.1426 44.1445V0.833006C44.1426 0.372932 43.7695 0 43.3092 0H11.6425C11.1822 0 10.8091 0.372932 10.8091 0.833006V3.33168H12.4759V1.66567H42.4758V43.3115H40.8093Z" fill="#405169"/>
<path d="M12.476 16.6582H32.4757V18.3239H12.476V16.6582Z" fill="#405169"/>
<path d="M12.476 11.6606H19.1427V13.3267H12.476V11.6606Z" fill="#405169"/>
<path d="M12.476 21.6558H25.8094V23.3218H12.476V21.6558Z" fill="#405169"/>
<path d="M27.4758 21.6558H32.4757V23.3218H27.4758V21.6558Z" fill="#405169"/>
<path d="M12.476 26.6533H32.4757V28.3193H12.476V26.6533Z" fill="#405169"/>
<path d="M12.476 36.6484H32.4757V38.3145H12.476V36.6484Z" fill="#405169"/>
<path d="M19.9757 31.6509H32.4757V33.3165H19.9757V31.6509Z" fill="#405169"/>
<path d="M12.476 31.6509H18.3092V33.3165H12.476V31.6509Z" fill="#405169"/>
<path d="M12.476 41.646H15.8093V43.3117H12.476V41.646Z" fill="#405169"/>
<path d="M17.4758 41.646H32.4758V43.3117H17.4758V41.646Z" fill="#405169"/>
</svg>
