<svg width="50" height="50" viewBox="0 0 50 50" fill="none" xmlns="http://www.w3.org/2000/svg">
<g clip-path="url(#clip0)">
<path d="M47.5515 38.9659C47.2173 38.7378 46.7617 38.824 46.5338 39.1581L44.8514 41.6238C44.3077 42.4205 44.0012 43.3512 43.9651 44.3154L43.7925 48.9434C43.7771 49.3563 44.1071 49.7029 44.5248 49.7029C44.9167 49.7029 45.2414 49.3927 45.2562 48.9979L45.4288 44.37C45.4545 43.6819 45.6731 43.0177 46.0612 42.4493L47.7437 39.9835C47.9715 39.6495 47.8854 39.1939 47.5515 38.9659Z" fill="#405169"/>
<path d="M48.9741 31.2414L44.5571 24.3887V11.6579C44.5571 10.0244 43.2282 8.69538 41.5947 8.69538H35.2597V1.7072C35.2597 0.929883 34.6272 0.297461 33.8499 0.297461H23.702C23.2974 0.297461 22.9696 0.625242 22.9696 1.02977C22.9696 1.4343 23.2974 1.76208 23.702 1.76208H33.7951V21.9894H18.0148V1.76198H20.7741C21.1786 1.76198 21.5064 1.4342 21.5064 1.02967C21.5064 0.625145 21.1786 0.297363 20.7741 0.297363H17.9602C17.1827 0.297363 16.5503 0.929883 16.5503 1.70711V8.69529H8.40266C6.76922 8.69529 5.44013 10.0243 5.44013 11.6578V17.2841C5.44013 17.6886 5.76791 18.0164 6.17244 18.0164C6.57696 18.0164 6.90474 17.6886 6.90474 17.2841V11.6578C6.90474 10.8319 7.57671 10.1599 8.40266 10.1599H16.5502V11.7736H10.2083C9.73771 11.7736 9.35476 12.1597 9.35476 12.6341V31.8578L7.02914 34.3798C6.94868 34.194 6.90484 33.9922 6.90484 33.7854V20.2122C6.90484 19.8076 6.57706 19.4799 6.17253 19.4799C5.76801 19.4799 5.44022 19.8076 5.44022 20.2122V24.3888L1.02323 31.2414C-0.374015 33.409 -0.337595 36.1861 1.11599 38.3163L3.93616 42.4492C4.32428 43.0178 4.5429 43.682 4.56848 44.3698L4.74121 48.9978C4.75605 49.3931 5.08442 49.7152 5.50027 49.7023C5.90451 49.6872 6.21989 49.3473 6.20485 48.9433L6.03213 44.3153C5.99619 43.3514 5.6898 42.4206 5.14603 41.6237L2.32586 37.4907C1.20504 35.848 1.17682 33.7065 2.25429 32.0349L5.44022 27.0922V33.7855C5.44022 34.4071 5.63678 35.0072 5.9916 35.505L5.59586 35.9342C5.32169 36.2316 5.34053 36.6949 5.63785 36.969C5.93507 37.2432 6.39838 37.2246 6.67265 36.9271L13.5043 29.5186C13.797 29.2012 14.3115 29.163 14.6451 29.489C14.9003 29.7384 14.9579 30.1308 14.7852 30.4431L10.6782 37.8631C10.3757 38.4097 10.4367 39.0745 10.8337 39.5566C11.6322 40.5269 11.871 41.8664 11.4567 43.0527C11.2526 43.6371 11.142 44.2469 11.1277 44.8651L11.0487 48.2588C11.0392 48.6679 11.3677 49.0082 11.7811 49.0082C12.1778 49.0082 12.5037 48.6915 12.513 48.293L12.592 44.8991C12.6027 44.434 12.686 43.9752 12.8395 43.5355C13.4212 41.8698 13.0859 39.9886 11.9645 38.626C11.952 38.6108 11.9502 38.5898 11.9596 38.5725L12.9695 36.7479H37.0283L38.0382 38.5725C38.0479 38.5898 38.0459 38.6108 38.0333 38.626C36.912 39.9884 36.5767 41.8697 37.1584 43.5355C37.3119 43.975 37.3953 44.4337 37.406 44.8993L37.485 48.293C37.4942 48.6878 37.8174 49.0148 38.2342 49.008C38.6385 48.9985 38.9587 48.6632 38.9492 48.2588L38.8702 44.8651C38.8559 44.2465 38.7451 43.6367 38.5412 43.0527C38.127 41.8665 38.3656 40.527 39.1641 39.5568C39.5611 39.0747 39.6222 38.4098 39.3197 37.8632L35.2127 30.4432C35.0399 30.1309 35.0975 29.7385 35.3528 29.489C35.6707 29.1782 36.1868 29.1862 36.4935 29.5187L43.3252 36.9272C43.5994 37.2245 44.0628 37.2432 44.36 36.9691C44.6573 36.695 44.6761 36.2317 44.402 35.9343L44.0068 35.5059C44.3641 35.0074 44.5574 34.4123 44.5574 33.7857V27.0923L47.7435 32.0352C48.6701 33.4729 48.7902 35.2552 48.0646 36.803C47.893 37.1692 48.0506 37.6053 48.4168 37.7769C48.7815 37.9478 49.2183 37.7926 49.3908 37.4247C50.3313 35.417 50.1758 33.1057 48.9741 31.2414ZM13.78 35.2833L14.6731 33.6697H35.3243L36.2174 35.2833H13.78ZM34.329 28.4415C33.6036 29.1503 33.44 30.2651 33.9311 31.1525L34.5138 32.205H15.4837L16.0663 31.1524C16.5573 30.265 16.3937 29.1502 15.6683 28.4415C14.746 27.5403 13.2824 27.5986 12.4274 28.5258L10.8193 30.2697V13.2383H16.5502V21.9893H15.7168C15.3122 21.9893 14.9845 22.3171 14.9845 22.7216C14.9845 23.1262 15.3122 23.4539 15.7168 23.4539H17.2825H34.5274H36.0932C36.4977 23.4539 36.8255 23.1262 36.8255 22.7216C36.8255 22.3171 36.4977 21.9893 36.0932 21.9893H35.2597V13.2383H40.0143V31.1765L37.5699 28.5257C36.7207 27.6052 35.2573 27.5342 34.329 28.4415ZM41.4789 32.7648V12.6343C41.4789 12.1599 41.096 11.7738 40.6252 11.7738H35.2597V10.1601H41.5947C42.4206 10.1601 43.0925 10.8321 43.0925 11.658V33.7856C43.0925 33.9941 43.0497 34.1956 42.9693 34.3811L41.4789 32.7648Z" fill="#405169"/>
<path d="M8.88137 23.2504V22.1928C8.88137 21.7882 8.55358 21.4604 8.14906 21.4604C7.74453 21.4604 7.41675 21.7882 7.41675 22.1928V23.2504C7.41675 23.6549 7.74453 23.9827 8.14906 23.9827C8.55358 23.9827 8.88137 23.6548 8.88137 23.2504Z" fill="#405169"/>
<path d="M24.6996 9.25467C24.361 9.03331 23.9072 9.12803 23.6858 9.46655C23.4643 9.80507 23.5592 10.2589 23.8976 10.4804C24.3681 10.7881 24.7237 10.9266 25.135 10.9846V11.1569C25.135 11.5614 25.4628 11.8892 25.8673 11.8892C26.2719 11.8892 26.5997 11.5614 26.5997 11.1569V10.9072C27.502 10.617 28.079 9.81903 28.2114 9.03136C28.392 7.95721 27.8099 6.98695 26.7631 6.61689C26.7091 6.59775 26.6544 6.57822 26.5997 6.5584V5.19074C26.7539 5.25392 26.8519 5.31758 26.8607 5.32344C27.1894 5.55387 27.643 5.47693 27.8768 5.14964C28.112 4.82059 28.0359 4.36314 27.7069 4.12802C27.6779 4.10732 27.2442 3.80395 26.5997 3.6652V3.52625C26.5997 3.12173 26.2719 2.79395 25.8673 2.79395C25.4628 2.79395 25.135 3.12173 25.135 3.52625V3.72554C24.4379 3.94875 23.9189 4.54797 23.7774 5.29873C23.6446 6.0038 23.8772 6.68895 24.3849 7.08713C24.6007 7.25634 24.8578 7.40398 25.1351 7.53784V9.4849C25.0037 9.43979 24.8734 9.36842 24.6996 9.25467ZM26.7669 8.78853C26.7443 8.92357 26.6878 9.06241 26.5996 9.18456V8.1935C26.7916 8.38703 26.7932 8.6326 26.7669 8.78853Z" fill="#405169"/>
<path d="M22.2379 14.2698H29.5719C29.9764 14.2698 30.3042 13.942 30.3042 13.5375C30.3042 13.133 29.9764 12.8052 29.5719 12.8052H22.2379C21.8334 12.8052 21.5056 13.133 21.5056 13.5375C21.5056 13.942 21.8334 14.2698 22.2379 14.2698Z" fill="#405169"/>
<path d="M29.5719 15.4927H22.2379C21.8334 15.4927 21.5056 15.8205 21.5056 16.225C21.5056 16.6295 21.8334 16.9573 22.2379 16.9573H29.5719C29.9764 16.9573 30.3042 16.6295 30.3042 16.225C30.3042 15.8205 29.9763 15.4927 29.5719 15.4927Z" fill="#405169"/>
<path d="M29.5719 18.1807H22.2379C21.8334 18.1807 21.5056 18.5084 21.5056 18.913C21.5056 19.3175 21.8334 19.6453 22.2379 19.6453H29.5719C29.9764 19.6453 30.3042 19.3175 30.3042 18.913C30.3042 18.5084 29.9763 18.1807 29.5719 18.1807Z" fill="#405169"/>
</g>
<defs>
<clipPath id="clip0">
<rect width="50" height="50" fill="white"/>
</clipPath>
</defs>
</svg>
