<svg width="60" height="60" viewBox="0 0 60 60" fill="none" xmlns="http://www.w3.org/2000/svg">
<path opacity="0.3" d="M30 60C46.5685 60 60 46.5685 60 30C60 13.4315 46.5685 0 30 0C13.4315 0 0 13.4315 0 30C0 46.5685 13.4315 60 30 60Z" fill="#F8F8F9"/>
<g clip-path="url(#clip0)">
<path d="M42.7264 27.024H40.0925V41.708H42.7264V27.024Z" fill="#F8F8F9"/>
<path d="M35.1538 31.765H32.5199V41.708H35.1538V31.765Z" fill="#F8F8F9"/>
<path d="M27.5156 36.7036H24.8817V41.708H27.5156V36.7036Z" fill="#F8F8F9"/>
<path d="M19.943 35.3208H17.3091V41.708H19.943V35.3208Z" fill="#F8F8F9"/>
<path d="M43.365 19.1947C42.4234 18.1082 40.7838 17.9831 39.6907 18.9247C38.9071 19.603 38.5976 20.6829 38.9071 21.6706L35.7596 23.9028C34.7916 22.8295 33.1322 22.7439 32.0589 23.7184C31.2424 24.4559 30.979 25.6214 31.3873 26.6421L28.4505 29.118C27.6866 27.8866 26.0734 27.5047 24.842 28.2685C24.2955 28.6109 23.8872 29.1377 23.7094 29.7567L21.2204 28.7492C21.0163 27.3137 19.6927 26.3194 18.2572 26.517C16.8218 26.7145 15.8275 28.0446 16.025 29.4801C16.2291 30.9156 17.5527 31.9099 18.9882 31.7124C20.0088 31.5675 20.8516 30.8432 21.1414 29.8555L23.6304 30.8629C23.8214 32.2984 25.1383 33.3059 26.5738 33.1215C28.0093 32.9371 29.0168 31.6136 28.8324 30.1781L31.9799 27.5244C33.0071 28.5451 34.6665 28.5385 35.6871 27.5113C36.3917 26.8067 36.6288 25.7597 36.3061 24.8115L39.4207 22.599C40.3623 23.6855 42.0019 23.8106 43.095 22.869C44.1881 21.9274 44.3066 20.2878 43.365 19.1947Z" fill="#F8F8F9"/>
</g>
<defs>
<clipPath id="clip0">
<rect width="28" height="28" fill="white" transform="translate(16 16)"/>
</clipPath>
</defs>
</svg>
