<svg width="60" height="60" viewBox="0 0 60 60" fill="none" xmlns="http://www.w3.org/2000/svg">
<path opacity="0.3" d="M30 60C46.5685 60 60 46.5685 60 30C60 13.4315 46.5685 0 30 0C13.4315 0 0 13.4315 0 30C0 46.5685 13.4315 60 30 60Z" fill="#F8F8F9"/>
<path d="M40.2053 30.7084H29.2946V19.7976C29.2946 19.3567 28.9418 19.004 28.5009 19.004C21.6112 19.004 16.0029 24.6122 16.0029 31.502C16.0029 38.3918 21.6112 44 28.5009 44C35.3907 44 40.9989 38.3918 40.9989 31.502C40.9989 31.067 40.6403 30.7084 40.2053 30.7084ZM28.5009 42.4128C22.4871 42.4128 17.5902 37.5159 17.5902 31.502C17.5902 25.7527 22.0579 21.0263 27.7073 20.6206V31.502C27.7073 31.9429 28.06 32.2956 28.5009 32.2956H39.3823C38.9767 37.945 34.2503 42.4128 28.5009 42.4128Z" fill="#F8F8F9"/>
<path d="M43.9969 28.4569C43.9852 25.4235 42.8741 22.5018 40.8695 20.2267C38.4945 17.5402 35.0849 16 31.4989 16C31.058 16 30.7053 16.3527 30.7053 16.7936V28.498C30.7053 28.9389 31.058 29.2916 31.4989 29.2916H43.2033C43.6442 29.2916 43.9969 28.9389 43.9969 28.498C43.9969 28.4862 43.9969 28.4745 43.9969 28.4569ZM32.2926 27.7103V17.6225C35.1261 17.8283 37.7832 19.1392 39.6761 21.2849C41.2634 23.0779 42.204 25.3353 42.3803 27.7103H32.2926Z" fill="#F8F8F9"/>
</svg>
