<svg width="625" height="360" viewBox="0 0 625 360" fill="none" xmlns="http://www.w3.org/2000/svg">
<mask id="mask0" mask-type="alpha" maskUnits="userSpaceOnUse" x="0" y="0" width="625" height="360">
<rect width="625" height="360" rx="25" fill="url(#paint0_linear)"/>
</mask>
<g mask="url(#mask0)">
<g opacity="0.08">
<path d="M635.382 141.399H609.889V237.634H635.382V141.399Z" fill="#F8F8F9"/>
<path d="M561.455 189.198H535.962V237.634H561.455V189.198Z" fill="#F8F8F9"/>
<path d="M488.163 175.814H462.67V237.634H488.163V175.814Z" fill="#F8F8F9"/>
<path d="M714.854 19.7372C705.74 9.22151 689.871 8.01062 679.292 17.1242C671.708 23.6885 668.713 34.1404 671.708 43.7001L641.244 65.305C631.876 54.9168 615.816 54.0883 605.428 63.5206C597.525 70.6585 594.976 81.9389 598.927 91.8172L570.503 115.78C563.11 103.862 547.496 100.166 535.578 107.559C530.288 110.873 526.337 115.971 524.616 121.962L500.526 112.211C498.55 98.3178 485.74 88.6944 471.847 90.6064C457.953 92.5183 448.33 105.392 450.242 119.285C452.218 133.179 465.028 142.802 478.921 140.89C488.799 139.488 496.957 132.478 499.761 122.918L523.852 132.669C525.7 146.562 538.446 156.313 552.339 154.529C566.233 152.744 575.984 139.934 574.199 126.041L604.663 100.357C614.605 110.236 630.665 110.172 640.543 100.23C647.363 93.4105 649.657 83.2773 646.534 74.0999L676.679 52.6862C685.793 63.2019 701.662 64.4128 712.241 55.2992C722.82 46.1857 723.968 30.3166 714.854 19.7372Z" fill="#F8F8F9"/>
</g>
</g>
<defs>
<linearGradient id="paint0_linear" x1="312.5" y1="0" x2="312.5" y2="360" gradientUnits="userSpaceOnUse">
<stop stop-color="#FFBF3A"/>
<stop offset="0.0001" stop-color="#21B787"/>
<stop offset="0.479167" stop-color="#139B70"/>
</linearGradient>
</defs>
</svg>
