<svg width="60" height="60" viewBox="0 0 60 60" fill="none" xmlns="http://www.w3.org/2000/svg">
<path opacity="0.3" d="M30 60C46.5685 60 60 46.5685 60 30C60 13.4315 46.5685 0 30 0C13.4315 0 0 13.4315 0 30C0 46.5685 13.4315 60 30 60Z" fill="#F8F8F9"/>
<path d="M30.3921 33.27L25.5398 44H22L27.3296 32.5258C24.8239 31.2727 23.1534 29.0014 23.1534 24.8112C23.1534 18.9371 26.9319 16 31.4262 16H36V44H32.9376V33.27H30.3921ZM32.9376 18.5455H31.3068C28.8409 18.5455 26.4545 20.151 26.4545 24.8112C26.4545 29.3146 28.6421 30.7635 31.3068 30.7635H32.9376V18.5455Z" fill="#F8F8F9"/>
</svg>
