<svg width="625" height="360" viewBox="0 0 625 360" fill="none" xmlns="http://www.w3.org/2000/svg">
<mask id="mask0" mask-type="alpha" maskUnits="userSpaceOnUse" x="0" y="0" width="625" height="360">
<rect width="625" height="360" rx="25" fill="url(#paint0_linear)"/>
</mask>
<g mask="url(#mask0)">
<g opacity="0.05">
<path d="M689.999 89.823C689.999 80.0006 689.187 70.1252 687.453 60.4621H548.41V116.104H628.034C624.73 134.05 614.113 149.925 598.568 160.013V196.117H646.071C673.966 170.95 689.999 133.785 689.999 89.823Z" fill="#F8F8F9"/>
<path d="M548.41 231C588.168 231 621.696 218.204 646.125 196.117L598.622 160.013C585.405 168.827 568.343 173.818 548.464 173.818C510.007 173.818 477.399 148.386 465.7 114.193H416.68V151.412C441.704 200.206 492.674 231 548.41 231Z" fill="#F8F8F9"/>
<path d="M465.646 114.193C459.472 96.2477 459.472 76.8154 465.646 58.8697V21.6509H416.681C395.773 62.4801 395.773 110.583 416.681 151.412L465.646 114.193Z" fill="#F8F8F9"/>
<path d="M548.41 -0.808163C569.426 -1.12672 589.738 6.62498 604.959 20.8541L647.046 -20.3998C620.396 -44.9292 585.026 -58.415 548.41 -57.9903C492.674 -57.9903 441.704 -27.1958 416.68 21.6506L465.645 58.8694C477.291 24.6238 509.953 -0.808163 548.41 -0.808163Z" fill="#F8F8F9"/>
</g>
</g>
<defs>
<linearGradient id="paint0_linear" x1="312.5" y1="0" x2="312.5" y2="360" gradientUnits="userSpaceOnUse">
<stop stop-color="#2174FE"/>
<stop offset="1" stop-color="#0160FF"/>
</linearGradient>
</defs>
</svg>
