<svg width="625" height="360" viewBox="0 0 625 360" fill="none" xmlns="http://www.w3.org/2000/svg">
<mask id="mask0" mask-type="alpha" maskUnits="userSpaceOnUse" x="0" y="0" width="625" height="360">
<rect width="625" height="360" rx="25" fill="url(#paint0_linear)"/>
</mask>
<g mask="url(#mask0)">
<g opacity="0.04">
<path d="M631.507 134.193H543.831V46.5169C543.831 42.974 540.997 40.1396 537.454 40.1396C482.09 40.1396 437.023 85.2058 437.023 140.57C437.023 195.934 482.09 241 537.454 241C592.818 241 637.884 195.934 637.884 140.57C637.884 137.074 635.003 134.193 631.507 134.193ZM537.454 228.246C489.128 228.246 449.778 188.896 449.778 140.57C449.778 94.3702 485.68 56.3899 531.077 53.1304V140.57C531.077 144.113 533.911 146.947 537.454 146.947H624.893C621.634 192.344 583.654 228.246 537.454 228.246Z" fill="#F8F8F9"/>
<path d="M661.975 116.1C661.881 91.7243 652.953 68.2465 636.844 49.9649C617.76 28.3767 590.361 16 561.545 16C558.002 16 555.168 18.8343 555.168 22.3773V116.43C555.168 119.973 558.002 122.808 561.545 122.808H655.598C659.141 122.808 661.975 119.973 661.975 116.43C661.975 116.336 661.975 116.241 661.975 116.1ZM567.922 110.1V29.038C590.692 30.6914 612.044 41.2257 627.255 58.468C640.009 72.8759 647.567 91.0157 648.985 110.1H567.922Z" fill="#F8F8F9"/>
</g>
</g>
<defs>
<linearGradient id="paint0_linear" x1="312.5" y1="0" x2="312.5" y2="360" gradientUnits="userSpaceOnUse">
<stop stop-color="#774EE0"/>
<stop offset="1" stop-color="#541CE4"/>
</linearGradient>
</defs>
</svg>
