<svg width="60" height="60" viewBox="0 0 60 60" fill="none" xmlns="http://www.w3.org/2000/svg">
<path opacity="0.3" d="M30 60C46.5685 60 60 46.5685 60 30C60 13.4315 46.5685 0 30 0C13.4315 0 0 13.4315 0 30C0 46.5685 13.4315 60 30 60Z" fill="#F8F8F9"/>
<path d="M43.9999 30.3219C43.9999 29.3703 43.9212 28.4135 43.7533 27.4773H30.282V32.8682H37.9963C37.6762 34.6069 36.6476 36.145 35.1415 37.1224V40.6203H39.7439C42.4465 38.182 43.9999 34.5812 43.9999 30.3219Z" fill="#F8F8F9"/>
<path d="M30.282 44C34.1339 44 37.3823 42.7603 39.7491 40.6204L35.1467 37.1224C33.8663 37.9763 32.2132 38.4599 30.2872 38.4599C26.5612 38.4599 23.402 35.9959 22.2685 32.6831H17.5192V36.2891C19.9437 41.0165 24.8819 44 30.282 44Z" fill="#F8F8F9"/>
<path d="M22.2633 32.6831C21.6651 30.9444 21.6651 29.0617 22.2633 27.323V23.717H17.5193C15.4936 27.6728 15.4936 32.3333 17.5193 36.2891L22.2633 32.6831Z" fill="#F8F8F9"/>
<path d="M30.282 21.5411C32.3181 21.5102 34.2861 22.2612 35.7607 23.6398L39.8383 19.6429C37.2564 17.2664 33.8295 15.9598 30.282 16.0009C24.8819 16.0009 19.9437 18.9845 17.5192 23.717L22.2632 27.323C23.3915 24.0051 26.556 21.5411 30.282 21.5411Z" fill="#F8F8F9"/>
</svg>
