<svg width="1010" height="1008" viewBox="0 0 1010 1008" fill="none" xmlns="http://www.w3.org/2000/svg">
<path d="M1009 504C1009 226.201 783.352 1 505 1C226.648 1 1 226.201 1 504C1 781.799 226.648 1007 505 1007C783.352 1007 1009 781.799 1009 504Z" fill="#1F73FF" fill-opacity="0.02" stroke="#1F73FF" stroke-opacity="0.04"/>
<path d="M962 504C962 252.158 757.394 48 505 48C252.606 48 48 252.158 48 504C48 755.842 252.606 960 505 960C757.394 960 962 755.842 962 504Z" fill="#1F73FF" fill-opacity="0.02" stroke="#1F73FF" stroke-opacity="0.04"/>
<path d="M920 503.5C920 275.13 734.422 90 505.5 90C276.578 90 91 275.13 91 503.5C91 731.87 276.578 917 505.5 917C734.422 917 920 731.87 920 503.5Z" fill="#1F73FF" fill-opacity="0.02" stroke="#1F73FF" stroke-opacity="0.04"/>
</svg>
