<svg width="1010" height="900" viewBox="0 0 1010 900" fill="none" xmlns="http://www.w3.org/2000/svg">
<path d="M1009 486C1009 208.201 783.352 -17 505 -17C226.648 -17 1 208.201 1 486C1 763.799 226.648 989 505 989C783.352 989 1009 763.799 1009 486Z" fill="white" fill-opacity="0.1" stroke="white"/>
<path d="M962 486C962 234.158 757.394 30 505 30C252.606 30 48 234.158 48 486C48 737.842 252.606 942 505 942C757.394 942 962 737.842 962 486Z" fill="white" fill-opacity="0.2" stroke="white"/>
<path d="M920 485.5C920 257.13 734.422 72 505.5 72C276.578 72 91 257.13 91 485.5C91 713.87 276.578 899 505.5 899C734.422 899 920 713.87 920 485.5Z" fill="white" fill-opacity="0.3" stroke="white"/>
</svg>
