<svg width="44" height="44" viewBox="0 0 44 44" fill="none" xmlns="http://www.w3.org/2000/svg">
<rect width="44" height="44" rx="22" fill="#1F73FF"/>
<path d="M18.1528 27.4029C17.9024 27.6623 17.7638 28.0096 17.7669 28.3701C17.77 28.7306 17.9146 29.0755 18.1696 29.3304C18.4245 29.5854 18.7694 29.73 19.1299 29.7331C19.4904 29.7362 19.8377 29.5976 20.0971 29.3472L26.0013 23.4429C27.0752 22.3691 27.0779 20.6338 26.0013 19.5572L20.0971 13.6529C19.8377 13.4025 19.4904 13.2639 19.1299 13.267C18.7694 13.2701 18.4245 13.4147 18.1696 13.6697C17.9146 13.9246 17.77 14.2695 17.7669 14.63C17.7638 14.9905 17.9024 15.3378 18.1528 15.5972L24.0557 21.5001L18.1528 27.4029Z" fill="white"/>
</svg>
