<svg width="44" height="44" viewBox="0 0 44 44" fill="none" xmlns="http://www.w3.org/2000/svg">
<rect x="44" y="44.0001" width="44" height="44" rx="22" transform="rotate(180 44 44.0001)" fill="#1F73FF"/>
<path d="M25.8472 15.5971C26.0976 15.3377 26.2362 14.9904 26.2331 14.6299C26.23 14.2694 26.0854 13.9245 25.8304 13.6696C25.5755 13.4146 25.2306 13.27 24.8701 13.2669C24.5096 13.2638 24.1623 13.4024 23.9029 13.6528L17.9987 19.5571C16.9248 20.6309 16.9221 22.3662 17.9987 23.4428L23.9029 29.3471C24.1623 29.5975 24.5096 29.7361 24.8701 29.733C25.2306 29.7299 25.5755 29.5853 25.8304 29.3303C26.0854 29.0754 26.23 28.7305 26.2331 28.37C26.2362 28.0095 26.0976 27.6622 25.8472 27.4028L19.9443 21.4999L25.8472 15.5971Z" fill="white"/>
</svg>
