<svg width="22" height="22" viewBox="0 0 22 22" fill="none" xmlns="http://www.w3.org/2000/svg">
<path d="M21.5626 19.4501L13.1126 11L21.5628 2.5498C22.1458 1.96687 22.1458 1.02033 21.5626 0.4372C20.9797 -0.145733 20.0332 -0.145733 19.4502 0.4372L11 8.88742L2.54978 0.4372C1.96685 -0.145733 1.0203 -0.145733 0.43737 0.4372C-0.145758 1.02033 -0.145758 1.96687 0.437176 2.5498L8.8874 11L0.43737 19.4501C-0.145758 20.0332 -0.145758 20.9797 0.437176 21.5627C1.0203 22.1458 1.96685 22.1458 2.54997 21.5627L11 13.1126L19.45 21.5627C20.0332 22.1458 20.9797 22.1458 21.5628 21.5627C22.1458 20.9797 22.1458 20.0332 21.5626 19.4501Z" fill="#0160FF"/>
</svg>
