<svg width="107" height="13" viewBox="0 0 107 13" fill="none" xmlns="http://www.w3.org/2000/svg">
<path d="M3.504 10.848C3.504 11.2213 3.37067 11.5413 3.104 11.808C2.83733 12.0747 2.51733 12.208 2.144 12.208C1.77067 12.208 1.45067 12.0747 1.184 11.808C0.917333 11.5413 0.784 11.2213 0.784 10.848C0.784 10.4747 0.917333 10.1547 1.184 9.888C1.45067 9.62133 1.77067 9.488 2.144 9.488C2.51733 9.488 2.83733 9.62133 3.104 9.888C3.37067 10.1547 3.504 10.4747 3.504 10.848Z" fill="#1F73FF"/>
<path d="M12.2333 12.224C10.5586 12.224 9.16658 11.664 8.05725 10.544C6.95858 9.43467 6.40925 8.05333 6.40925 6.4C6.40925 4.736 6.95858 3.35467 8.05725 2.256C9.16658 1.136 10.5586 0.575999 12.2333 0.575999C13.2466 0.575999 14.1799 0.815999 15.0333 1.296C15.8973 1.76533 16.5693 2.40533 17.0493 3.216L15.1453 4.32C14.8679 3.81867 14.4733 3.42933 13.9612 3.152C13.4493 2.864 12.8733 2.72 12.2333 2.72C11.1453 2.72 10.2653 3.06133 9.59325 3.744C8.93192 4.43733 8.60125 5.32267 8.60125 6.4C8.60125 7.46667 8.93192 8.34667 9.59325 9.04C10.2653 9.72267 11.1453 10.064 12.2333 10.064C12.8733 10.064 13.4493 9.92533 13.9612 9.648C14.4839 9.36 14.8786 8.97067 15.1453 8.48L17.0493 9.584C16.5693 10.3947 15.8973 11.04 15.0333 11.52C14.1799 11.9893 13.2466 12.224 12.2333 12.224ZM29.3203 10.544C28.1896 11.664 26.8136 12.224 25.1923 12.224C23.5709 12.224 22.1949 11.664 21.0643 10.544C19.9443 9.40267 19.3843 8.02133 19.3843 6.4C19.3843 4.768 19.9443 3.392 21.0643 2.272C22.1949 1.14133 23.5709 0.575999 25.1923 0.575999C26.8136 0.575999 28.1896 1.14133 29.3203 2.272C30.4509 3.392 31.0163 4.768 31.0163 6.4C31.0163 8.032 30.4509 9.41333 29.3203 10.544ZM22.6163 9.04C23.2989 9.72267 24.1576 10.064 25.1923 10.064C26.2269 10.064 27.0856 9.72267 27.7683 9.04C28.4616 8.34667 28.8083 7.46667 28.8083 6.4C28.8083 5.33333 28.4616 4.45333 27.7683 3.76C27.0749 3.06667 26.2163 2.72 25.1923 2.72C24.1683 2.72 23.3096 3.06667 22.6163 3.76C21.9229 4.45333 21.5763 5.33333 21.5763 6.4C21.5763 7.46667 21.9229 8.34667 22.6163 9.04ZM40.6481 7.632V0.799999H42.8561V12H41.1761L36.3761 5.152V12H34.1681V0.799999H35.8481L40.6481 7.632ZM45.7018 0.799999H53.9418V2.912H50.9178V12H48.7098V2.912H45.7018V0.799999ZM58.9824 7.376V9.888H63.7024V12H56.7744V0.799999H63.6224V2.912H58.9824V5.296H63.2224V7.376H58.9824ZM71.9467 6.24L75.3867 12H72.8747L70.6987 8.352L68.5227 12H66.0267L69.4507 6.256L66.2027 0.799999H68.6987L70.6987 4.16L72.6987 0.799999H75.1947L71.9467 6.24ZM77.3924 0.799999H85.6324V2.912H82.6084V12H80.4004V2.912H77.3924V0.799999ZM95.1106 12H87.6226V10.352L91.4466 6.416C92.3 5.50933 92.7266 4.76267 92.7266 4.176C92.7266 3.73867 92.588 3.38667 92.3106 3.12C92.044 2.85333 91.6973 2.72 91.2706 2.72C90.4173 2.72 89.7933 3.15733 89.3986 4.032L87.5426 2.944C87.884 2.18667 88.38 1.60533 89.0306 1.2C89.692 0.783999 90.428 0.575999 91.2386 0.575999C92.252 0.575999 93.1213 0.895999 93.8466 1.536C94.572 2.16533 94.9346 3.01867 94.9346 4.096C94.9346 5.25867 94.3213 6.45333 93.0946 7.68L90.9026 9.872H95.1106V12ZM102.891 3.776C103.968 3.776 104.885 4.18667 105.643 5.008C106.411 5.82933 106.795 6.82667 106.795 8C106.795 9.19467 106.411 10.1973 105.643 11.008C104.896 11.8187 103.979 12.224 102.891 12.224C101.771 12.224 100.907 11.8347 100.299 11.056V12H98.2346V0.799999H100.299V4.944C100.907 4.16533 101.771 3.776 102.891 3.776ZM100.923 9.632C101.339 10.048 101.867 10.256 102.507 10.256C103.147 10.256 103.675 10.048 104.091 9.632C104.517 9.20533 104.731 8.66133 104.731 8C104.731 7.33867 104.517 6.8 104.091 6.384C103.675 5.95733 103.147 5.744 102.507 5.744C101.867 5.744 101.339 5.95733 100.923 6.384C100.507 6.8 100.299 7.33867 100.299 8C100.299 8.66133 100.507 9.20533 100.923 9.632Z" fill="#001737"/>
</svg>
