<svg width="145" height="27" viewBox="0 0 145 27" fill="none" xmlns="http://www.w3.org/2000/svg">
<path d="M10.512 11.544C10.512 12.664 10.112 13.624 9.312 14.424C8.512 15.224 7.552 15.624 6.432 15.624C5.312 15.624 4.352 15.224 3.552 14.424C2.752 13.624 2.352 12.664 2.352 11.544C2.352 10.424 2.752 9.464 3.552 8.664C4.352 7.864 5.312 7.464 6.432 7.464C7.552 7.464 8.512 7.864 9.312 8.664C10.112 9.464 10.512 10.424 10.512 11.544Z" fill="#1F73FF"/>
<path d="M25.5837 15.28C23.4904 15.28 21.7504 14.58 20.3637 13.18C18.9904 11.7933 18.3037 10.0667 18.3037 8C18.3037 5.92 18.9904 4.19333 20.3637 2.82C21.7504 1.42 23.4904 0.719999 25.5837 0.719999C26.8504 0.719999 28.0171 1.02 29.0837 1.62C30.1638 2.20667 31.0038 3.00667 31.6037 4.02L29.2238 5.4C28.8771 4.77333 28.3837 4.28667 27.7437 3.94C27.1037 3.58 26.3837 3.4 25.5837 3.4C24.2237 3.4 23.1237 3.82667 22.2837 4.68C21.4571 5.54667 21.0437 6.65333 21.0437 8C21.0437 9.33333 21.4571 10.4333 22.2837 11.3C23.1237 12.1533 24.2237 12.58 25.5837 12.58C26.3837 12.58 27.1037 12.4067 27.7437 12.06C28.3971 11.7 28.8904 11.2133 29.2238 10.6L31.6037 11.98C31.0038 12.9933 30.1638 13.8 29.0837 14.4C28.0171 14.9867 26.8504 15.28 25.5837 15.28ZM46.9425 13.18C45.5292 14.58 43.8092 15.28 41.7825 15.28C39.7558 15.28 38.0358 14.58 36.6225 13.18C35.2225 11.7533 34.5225 10.0267 34.5225 8C34.5225 5.96 35.2225 4.24 36.6225 2.84C38.0358 1.42667 39.7558 0.719999 41.7825 0.719999C43.8092 0.719999 45.5292 1.42667 46.9425 2.84C48.3558 4.24 49.0625 5.96 49.0625 8C49.0625 10.04 48.3558 11.7667 46.9425 13.18ZM38.5625 11.3C39.4158 12.1533 40.4892 12.58 41.7825 12.58C43.0758 12.58 44.1492 12.1533 45.0025 11.3C45.8692 10.4333 46.3025 9.33333 46.3025 8C46.3025 6.66667 45.8692 5.56667 45.0025 4.7C44.1358 3.83333 43.0625 3.4 41.7825 3.4C40.5025 3.4 39.4292 3.83333 38.5625 4.7C37.6958 5.56667 37.2625 6.66667 37.2625 8C37.2625 9.33333 37.6958 10.4333 38.5625 11.3ZM61.1023 9.54V0.999999H63.8623V15H61.7623L55.7623 6.44V15H53.0023V0.999999H55.1023L61.1023 9.54ZM67.4194 0.999999H77.7194V3.64H73.9394V15H71.1794V3.64H67.4194V0.999999ZM84.0202 9.22V12.36H89.9202V15H81.2602V0.999999H89.8202V3.64H84.0202V6.62H89.3202V9.22H84.0202ZM100.226 7.8L104.526 15H101.386L98.6656 10.44L95.9456 15H92.8256L97.1056 7.82L93.0456 0.999999H96.1656L98.6656 5.2L101.166 0.999999H104.286L100.226 7.8ZM107.033 0.999999H117.333V3.64H113.553V15H110.793V3.64H107.033V0.999999ZM129.18 15H119.82V12.94L124.6 8.02C125.667 6.88667 126.2 5.95333 126.2 5.22C126.2 4.67333 126.027 4.23333 125.68 3.9C125.347 3.56667 124.914 3.4 124.38 3.4C123.314 3.4 122.534 3.94667 122.04 5.04L119.72 3.68C120.147 2.73333 120.767 2.00667 121.58 1.5C122.407 0.979999 123.327 0.719999 124.34 0.719999C125.607 0.719999 126.694 1.12 127.6 1.92C128.507 2.70667 128.96 3.77333 128.96 5.12C128.96 6.57333 128.194 8.06667 126.66 9.6L123.92 12.34H129.18V15ZM138.905 4.72C140.252 4.72 141.399 5.23333 142.345 6.26C143.305 7.28667 143.785 8.53333 143.785 10C143.785 11.4933 143.305 12.7467 142.345 13.76C141.412 14.7733 140.265 15.28 138.905 15.28C137.505 15.28 136.425 14.7933 135.665 13.82V15H133.085V0.999999H135.665V6.18C136.425 5.20667 137.505 4.72 138.905 4.72ZM136.445 12.04C136.965 12.56 137.625 12.82 138.425 12.82C139.225 12.82 139.885 12.56 140.405 12.04C140.939 11.5067 141.205 10.8267 141.205 10C141.205 9.17333 140.939 8.5 140.405 7.98C139.885 7.44667 139.225 7.18 138.425 7.18C137.625 7.18 136.965 7.44667 136.445 7.98C135.925 8.5 135.665 9.17333 135.665 10C135.665 10.8267 135.925 11.5067 136.445 12.04ZM3.512 21.472V21H4.544V25H3.512V24.528C3.20267 24.9173 2.768 25.112 2.208 25.112C1.67467 25.112 1.216 24.9093 0.832 24.504C0.453333 24.0933 0.264 23.592 0.264 23C0.264 22.4133 0.453333 21.9147 0.832 21.504C1.216 21.0933 1.67467 20.888 2.208 20.888C2.768 20.888 3.20267 21.0827 3.512 21.472ZM1.608 23.816C1.816 24.024 2.08 24.128 2.4 24.128C2.72 24.128 2.984 24.024 3.192 23.816C3.40533 23.6027 3.512 23.3307 3.512 23C3.512 22.6693 3.40533 22.4 3.192 22.192C2.984 21.9787 2.72 21.872 2.4 21.872C2.08 21.872 1.816 21.9787 1.608 22.192C1.4 22.4 1.296 22.6693 1.296 23C1.296 23.3307 1.4 23.6027 1.608 23.816ZM6.27981 21H9.01581V21.992H7.31181V25H6.27981V21ZM14.1006 23.424H11.0846C11.218 23.9253 11.594 24.176 12.2126 24.176C12.6073 24.176 12.906 24.0427 13.1086 23.776L13.9406 24.256C13.546 24.8267 12.9646 25.112 12.1966 25.112C11.5353 25.112 11.0046 24.912 10.6046 24.512C10.2046 24.112 10.0046 23.608 10.0046 23C10.0046 22.4027 10.202 21.9013 10.5966 21.496C10.986 21.0907 11.4926 20.888 12.1166 20.888C12.7086 20.888 13.1913 21.0907 13.5646 21.496C13.9486 21.9013 14.1406 22.4027 14.1406 23C14.1406 23.112 14.1273 23.2533 14.1006 23.424ZM11.0686 22.624H13.1086C13.05 22.3627 12.93 22.1627 12.7486 22.024C12.5726 21.8853 12.362 21.816 12.1166 21.816C11.8393 21.816 11.61 21.888 11.4286 22.032C11.2473 22.1707 11.1273 22.368 11.0686 22.624ZM18.2851 22.512V21H19.3171V25H18.2851V23.48H16.6931V25H15.6611V21H16.6931V22.512H18.2851ZM20.6706 21H24.2146V21.992H22.9666V25H21.9346V21.992H20.6706V21ZM27.3135 25.112C26.7108 25.112 26.2068 24.9093 25.8015 24.504C25.4015 24.0987 25.2015 23.5973 25.2015 23C25.2015 22.4027 25.4015 21.9013 25.8015 21.496C26.2068 21.0907 26.7108 20.888 27.3135 20.888C27.7028 20.888 28.0575 20.9813 28.3775 21.168C28.6975 21.3547 28.9402 21.6053 29.1055 21.92L28.2175 22.44C28.1375 22.2747 28.0148 22.144 27.8495 22.048C27.6895 21.952 27.5082 21.904 27.3055 21.904C26.9962 21.904 26.7402 22.008 26.5375 22.216C26.3348 22.4187 26.2335 22.68 26.2335 23C26.2335 23.3093 26.3348 23.5707 26.5375 23.784C26.7402 23.9867 26.9962 24.088 27.3055 24.088C27.5135 24.088 27.6975 24.0427 27.8575 23.952C28.0228 23.856 28.1455 23.7253 28.2255 23.56L29.1215 24.072C28.9455 24.392 28.6948 24.6453 28.3695 24.832C28.0495 25.0187 27.6975 25.112 27.3135 25.112ZM30.0519 21H33.5959V21.992H32.3479V25H31.3159V21.992H30.0519V21ZM37.827 22.952C38.2003 23.1333 38.387 23.4373 38.387 23.864C38.387 24.2053 38.2697 24.48 38.035 24.688C37.8003 24.896 37.4723 25 37.051 25H34.947V21H36.891C37.307 21 37.6323 21.104 37.867 21.312C38.1017 21.5147 38.219 21.7867 38.219 22.128C38.219 22.48 38.0883 22.7547 37.827 22.952ZM36.795 21.848H35.915V22.568H36.795C37.0883 22.568 37.235 22.448 37.235 22.208C37.235 21.968 37.0883 21.848 36.795 21.848ZM35.915 24.128H36.931C37.2297 24.128 37.379 24 37.379 23.744C37.379 23.632 37.339 23.544 37.259 23.48C37.179 23.416 37.0697 23.384 36.931 23.384H35.915V24.128ZM43.2409 24.504C42.8356 24.9093 42.3343 25.112 41.7369 25.112C41.1396 25.112 40.6383 24.9093 40.2329 24.504C39.8276 24.0987 39.6249 23.5973 39.6249 23C39.6249 22.408 39.8276 21.9093 40.2329 21.504C40.6436 21.0933 41.1449 20.888 41.7369 20.888C42.3289 20.888 42.8303 21.0933 43.2409 21.504C43.6516 21.9147 43.8569 22.4133 43.8569 23C43.8569 23.592 43.6516 24.0933 43.2409 24.504ZM40.9609 23.792C41.1689 24 41.4276 24.104 41.7369 24.104C42.0463 24.104 42.3049 24 42.5129 23.792C42.7209 23.584 42.8249 23.32 42.8249 23C42.8249 22.68 42.7209 22.416 42.5129 22.208C42.3049 22 42.0463 21.896 41.7369 21.896C41.4276 21.896 41.1689 22 40.9609 22.208C40.7583 22.4213 40.6569 22.6853 40.6569 23C40.6569 23.3147 40.7583 23.5787 40.9609 23.792ZM50.2149 22.976L51.8709 25H50.6709L49.2149 23.184V25H48.1829V21H49.2149V22.76L50.5909 21H51.8229L50.2149 22.976ZM56.305 24.504C55.8997 24.9093 55.3983 25.112 54.801 25.112C54.2037 25.112 53.7023 24.9093 53.297 24.504C52.8917 24.0987 52.689 23.5973 52.689 23C52.689 22.408 52.8917 21.9093 53.297 21.504C53.7077 21.0933 54.209 20.888 54.801 20.888C55.393 20.888 55.8943 21.0933 56.305 21.504C56.7157 21.9147 56.921 22.4133 56.921 23C56.921 23.592 56.7157 24.0933 56.305 24.504ZM54.025 23.792C54.233 24 54.4917 24.104 54.801 24.104C55.1103 24.104 55.369 24 55.577 23.792C55.785 23.584 55.889 23.32 55.889 23C55.889 22.68 55.785 22.416 55.577 22.208C55.369 22 55.1103 21.896 54.801 21.896C54.4917 21.896 54.233 22 54.025 22.208C53.8223 22.4213 53.721 22.6853 53.721 23C53.721 23.3147 53.8223 23.5787 54.025 23.792ZM61.071 22.512V21H62.103V25H61.071V23.48H59.479V25H58.447V21H59.479V22.512H61.071ZM63.4566 21H67.0006V21.992H65.7526V25H64.7206V21.992H63.4566V21ZM72.0834 23.424H69.0674C69.2008 23.9253 69.5768 24.176 70.1954 24.176C70.5901 24.176 70.8888 24.0427 71.0914 23.776L71.9234 24.256C71.5288 24.8267 70.9474 25.112 70.1794 25.112C69.5181 25.112 68.9874 24.912 68.5874 24.512C68.1874 24.112 67.9874 23.608 67.9874 23C67.9874 22.4027 68.1848 21.9013 68.5794 21.496C68.9688 21.0907 69.4754 20.888 70.0994 20.888C70.6914 20.888 71.1741 21.0907 71.5474 21.496C71.9314 21.9013 72.1234 22.4027 72.1234 23C72.1234 23.112 72.1101 23.2533 72.0834 23.424ZM69.0514 22.624H71.0914C71.0328 22.3627 70.9128 22.1627 70.7314 22.024C70.5554 21.8853 70.3448 21.816 70.0994 21.816C69.8221 21.816 69.5928 21.888 69.4114 22.032C69.2301 22.1707 69.1101 22.368 69.0514 22.624ZM75.6759 22.976L77.3319 25H76.1319L74.6759 23.184V25H73.6439V21H74.6759V22.76L76.0519 21H77.2839L75.6759 22.976ZM80.2619 25.112C79.6593 25.112 79.1553 24.9093 78.7499 24.504C78.3499 24.0987 78.1499 23.5973 78.1499 23C78.1499 22.4027 78.3499 21.9013 78.7499 21.496C79.1553 21.0907 79.6593 20.888 80.2619 20.888C80.6513 20.888 81.0059 20.9813 81.3259 21.168C81.6459 21.3547 81.8886 21.6053 82.0539 21.92L81.1659 22.44C81.0859 22.2747 80.9633 22.144 80.7979 22.048C80.6379 21.952 80.4566 21.904 80.2539 21.904C79.9446 21.904 79.6886 22.008 79.4859 22.216C79.2833 22.4187 79.1819 22.68 79.1819 23C79.1819 23.3093 79.2833 23.5707 79.4859 23.784C79.6886 23.9867 79.9446 24.088 80.2539 24.088C80.4619 24.088 80.6459 24.0427 80.8059 23.952C80.9713 23.856 81.0939 23.7253 81.1739 23.56L82.0699 24.072C81.8939 24.392 81.6433 24.6453 81.3179 24.832C80.9979 25.0187 80.6459 25.112 80.2619 25.112ZM83.0003 21H86.5443V21.992H85.2963V25H84.2643V21.992H83.0003V21ZM90.5194 22.512V21H91.5514V25H90.5194V23.48H88.9274V25H87.8954V21H88.9274V22.512H90.5194ZM96.705 24.504C96.2997 24.9093 95.7983 25.112 95.201 25.112C94.6037 25.112 94.1023 24.9093 93.697 24.504C93.2917 24.0987 93.089 23.5973 93.089 23C93.089 22.408 93.2917 21.9093 93.697 21.504C94.1077 21.0933 94.609 20.888 95.201 20.888C95.793 20.888 96.2943 21.0933 96.705 21.504C97.1157 21.9147 97.321 22.4133 97.321 23C97.321 23.592 97.1157 24.0933 96.705 24.504ZM94.425 23.792C94.633 24 94.8917 24.104 95.201 24.104C95.5103 24.104 95.769 24 95.977 23.792C96.185 23.584 96.289 23.32 96.289 23C96.289 22.68 96.185 22.416 95.977 22.208C95.769 22 95.5103 21.896 95.201 21.896C94.8917 21.896 94.633 22 94.425 22.208C94.2223 22.4213 94.121 22.6853 94.121 23C94.121 23.3147 94.2223 23.5787 94.425 23.792ZM101.839 20.488H99.519V19.592H101.839V20.488ZM99.855 23.272L101.735 21H102.503V25H101.495V22.728L99.615 25H98.847V21H99.855V23.272ZM109.377 20.888C109.915 20.888 110.374 21.0933 110.753 21.504C111.137 21.9147 111.329 22.4133 111.329 23C111.329 23.5973 111.137 24.0987 110.753 24.504C110.379 24.9093 109.921 25.112 109.377 25.112C108.817 25.112 108.385 24.9173 108.081 24.528V26.6H107.049V21H108.081V21.472C108.385 21.0827 108.817 20.888 109.377 20.888ZM108.393 23.816C108.601 24.024 108.865 24.128 109.185 24.128C109.505 24.128 109.769 24.024 109.977 23.816C110.19 23.6027 110.297 23.3307 110.297 23C110.297 22.6693 110.19 22.4 109.977 22.192C109.769 21.9787 109.505 21.872 109.185 21.872C108.865 21.872 108.601 21.9787 108.393 22.192C108.185 22.4 108.081 22.6693 108.081 23C108.081 23.3307 108.185 23.6027 108.393 23.816ZM116.744 23.424H113.728C113.862 23.9253 114.238 24.176 114.856 24.176C115.251 24.176 115.55 24.0427 115.752 23.776L116.584 24.256C116.19 24.8267 115.608 25.112 114.84 25.112C114.179 25.112 113.648 24.912 113.248 24.512C112.848 24.112 112.648 23.608 112.648 23C112.648 22.4027 112.846 21.9013 113.24 21.496C113.63 21.0907 114.136 20.888 114.76 20.888C115.352 20.888 115.835 21.0907 116.208 21.496C116.592 21.9013 116.784 22.4027 116.784 23C116.784 23.112 116.771 23.2533 116.744 23.424ZM113.712 22.624H115.752C115.694 22.3627 115.574 22.1627 115.392 22.024C115.216 21.8853 115.006 21.816 114.76 21.816C114.483 21.816 114.254 21.888 114.072 22.032C113.891 22.1707 113.771 22.368 113.712 22.624ZM120.337 22.976L121.993 25H120.793L119.337 23.184V25H118.305V21H119.337V22.76L120.713 21H121.945L120.337 22.976ZM123.572 21H126.74V25H125.708V21.992H124.604V23.328C124.604 24.56 124.041 25.1173 122.916 25V24.032C123.129 24.0853 123.292 24.048 123.404 23.92C123.516 23.792 123.572 23.576 123.572 23.272V21ZM131.515 21.472V21H132.547V25H131.515V24.528C131.206 24.9173 130.771 25.112 130.211 25.112C129.678 25.112 129.219 24.9093 128.835 24.504C128.456 24.0933 128.267 23.592 128.267 23C128.267 22.4133 128.456 21.9147 128.835 21.504C129.219 21.0933 129.678 20.888 130.211 20.888C130.771 20.888 131.206 21.0827 131.515 21.472ZM129.611 23.816C129.819 24.024 130.083 24.128 130.403 24.128C130.723 24.128 130.987 24.024 131.195 23.816C131.408 23.6027 131.515 23.3307 131.515 23C131.515 22.6693 131.408 22.4 131.195 22.192C130.987 21.9787 130.723 21.872 130.403 21.872C130.083 21.872 129.819 21.9787 129.611 22.192C129.403 22.4 129.299 22.6693 129.299 23C129.299 23.3307 129.403 23.6027 129.611 23.816ZM137.427 21H138.443V25H137.443V22.664L136.427 24.264H136.299L135.275 22.648V25H134.283V21H135.299L136.363 22.68L137.427 21ZM141.216 22.28H141.992C142.446 22.28 142.811 22.4053 143.088 22.656C143.366 22.9013 143.504 23.2293 143.504 23.64C143.504 24.0507 143.366 24.3813 143.088 24.632C142.811 24.8773 142.446 25 141.992 25H140.184V21H141.216V22.28ZM143.944 25V21H144.976V25H143.944ZM141.216 24.088H142C142.144 24.088 142.262 24.048 142.352 23.968C142.448 23.8827 142.496 23.7733 142.496 23.64C142.496 23.5067 142.448 23.3973 142.352 23.312C142.262 23.2267 142.144 23.184 142 23.184H141.216V24.088Z" fill="#001737"/>
</svg>
